<?xml version="1.0" standalone="no"?>
<!DOCTYPE svg PUBLIC "-//W3C//DTD SVG 20010904//EN"
 "http://www.w3.org/TR/2001/REC-SVG-20010904/DTD/svg10.dtd">
<svg version="1.0" xmlns="http://www.w3.org/2000/svg"
 width="512.000000pt" height="512.000000pt" viewBox="0 0 512.000000 512.000000"
 preserveAspectRatio="xMidYMid meet">
<metadata>
Created by potrace 1.11, written by Peter Selinger 2001-2013
</metadata>
<g transform="translate(0.000000,512.000000) scale(0.100000,-0.100000)"
fill="#000000" stroke="none">
<path d="M1565 4989 c-22 -3 -52 -11 -66 -17 -28 -11 -82 -76 -72 -86 4 -3 1
-6 -5 -6 -7 0 -10 -25 -9 -72 3 -88 27 -145 88 -207 29 -30 93 -86 110 -96 9
-5 63 -41 120 -80 57 -38 126 -81 152 -94 26 -13 47 -27 47 -30 -1 -3 -18 -19
-39 -36 -21 -16 -42 -37 -47 -46 -5 -9 -20 -36 -33 -60 -14 -24 -26 -48 -27
-54 -5 -17 -12 -48 -22 -94 -11 -47 -13 -241 -3 -241 4 0 6 -12 5 -27 -2 -58
51 -273 68 -273 5 0 6 -5 3 -10 -4 -6 -2 -17 5 -25 6 -7 7 -16 2 -19 -12 -7
-78 -15 -177 -22 -44 -2 -98 -6 -120 -8 -22 -2 -80 -6 -130 -10 -49 -4 -101
-10 -115 -13 -24 -4 -34 -5 -62 -2 -7 1 -42 -1 -77 -5 -35 -3 -129 -8 -210
-11 -179 -6 -333 -15 -340 -20 -3 -1 -24 -6 -46 -10 -46 -8 -44 -7 -105 -24
-45 -13 -98 -34 -134 -53 -64 -34 -92 -52 -98 -62 -4 -6 -8 -7 -8 -2 0 5 -25
-18 -56 -50 -52 -55 -116 -152 -120 -182 -2 -8 -6 -21 -10 -30 -44 -101 -38
-389 9 -449 5 -7 6 -13 2 -13 -4 0 0 -11 9 -25 9 -13 16 -29 16 -35 0 -6 22
-43 49 -83 64 -95 120 -146 241 -219 14 -8 42 -20 63 -27 20 -7 37 -17 37 -23
0 -6 3 -9 6 -5 3 3 29 -1 57 -10 29 -8 61 -17 72 -19 11 -2 38 -7 60 -11 22
-4 96 -8 165 -8 130 0 175 5 274 31 21 5 27 4 22 -5 -4 -6 -3 -11 1 -11 5 0
10 -15 11 -33 3 -30 8 -66 12 -77 1 -3 3 -9 5 -15 1 -5 3 -12 5 -15 1 -3 3
-16 4 -30 2 -14 5 -32 8 -40 3 -8 11 -37 18 -65 6 -27 16 -59 20 -70 5 -11 19
-49 31 -85 24 -71 114 -262 153 -325 33 -53 51 -83 71 -123 10 -17 21 -32 26
-32 5 0 9 -4 9 -10 0 -9 19 -35 48 -65 6 -8 12 -16 12 -19 0 -14 240 -266 254
-266 3 0 24 -18 48 -40 24 -21 54 -45 68 -52 14 -7 28 -17 32 -23 4 -5 8 -6 8
-1 0 5 9 -1 20 -14 11 -13 20 -20 20 -17 0 4 15 -2 33 -13 68 -41 230 -105
289 -115 80 -13 88 -17 94 -41 3 -13 4 -33 1 -44 -3 -11 -2 -20 2 -20 4 0 7
-17 8 -37 2 -79 8 -123 16 -123 4 0 7 -6 6 -13 -5 -29 50 -144 77 -162 33 -21
49 -19 81 13 29 29 77 147 67 163 -3 5 -1 9 3 9 5 0 9 8 10 18 3 57 12 132 17
141 4 5 2 12 -4 16 -6 4 -7 12 -3 18 4 7 8 19 8 27 0 9 15 18 40 24 80 17 215
59 215 68 0 4 3 7 8 7 21 -4 42 3 56 17 9 8 16 13 16 9 0 -3 12 2 28 12 48 32
66 43 87 52 11 5 30 19 43 30 12 12 22 18 22 14 0 -4 6 -1 13 8 7 9 14 16 17
15 7 -1 35 24 155 141 106 104 145 146 185 203 13 19 32 44 42 54 9 10 15 23
12 28 -3 4 0 8 6 8 6 0 16 14 21 30 6 17 14 30 19 30 4 0 18 23 31 50 13 28
26 50 30 50 5 0 56 105 120 245 14 31 78 228 83 256 2 13 5 26 6 29 1 3 3 10
4 15 5 30 22 109 26 123 1 4 2 19 2 35 1 15 5 27 10 27 5 0 6 5 3 10 -4 7 3 9
22 5 15 -4 37 -8 48 -9 11 -2 20 -4 20 -6 0 -2 32 -7 93 -13 23 -2 45 -7 48
-10 4 -4 15 -2 25 4 13 7 19 6 19 -1 0 -8 6 -8 20 0 14 8 20 8 20 0 0 -6 5 -8
11 -5 5 4 34 9 62 11 29 2 63 6 77 9 14 2 39 7 56 9 17 3 43 10 57 15 15 6 27
8 27 5 0 -4 6 -1 13 5 8 6 22 12 33 15 41 9 64 19 64 28 0 5 4 7 9 3 5 -3 16
0 23 7 13 12 24 19 81 51 12 6 39 29 60 49 21 21 42 38 47 38 8 0 15 14 19 35
2 6 8 13 16 18 25 13 91 141 115 222 27 93 36 238 19 330 -12 67 -66 205 -80
205 -5 0 -9 6 -9 13 0 26 -150 167 -178 167 -5 0 -15 7 -22 15 -7 8 -16 12
-21 9 -5 -3 -9 0 -9 5 0 6 -7 11 -15 11 -8 0 -23 4 -33 9 -49 25 -129 49 -188
57 -20 2 -39 6 -43 8 -9 6 -140 14 -346 21 -82 4 -166 8 -185 9 -19 2 -80 7
-135 11 -55 4 -116 8 -135 10 -58 6 -170 14 -260 20 -98 7 -161 14 -173 22 -4
3 -1 16 8 29 8 13 13 24 10 24 -3 0 1 12 8 28 8 15 18 45 22 67 5 22 9 45 11
50 17 60 25 137 29 265 5 166 -53 325 -141 390 -18 14 -34 28 -34 31 0 3 21
17 48 31 65 34 96 52 102 59 3 3 16 12 30 19 40 21 202 143 240 182 39 39 74
85 68 90 -1 2 4 15 12 28 19 30 27 155 11 165 -6 3 -9 10 -6 15 14 23 -102
109 -126 95 -5 -4 -9 -2 -9 3 0 15 -110 -7 -159 -31 -40 -20 -83 -58 -153
-135 -16 -17 -28 -33 -28 -35 0 -3 -29 -48 -65 -100 -36 -52 -65 -100 -65
-105 0 -5 -9 -21 -21 -36 -11 -14 -17 -26 -12 -26 4 0 3 -4 -3 -8 -13 -9 -54
-105 -54 -127 0 -10 -5 -13 -12 -9 -11 7 -36 11 -113 18 -22 2 -42 5 -45 6 -9
6 -560 6 -560 0 0 -3 -15 -6 -33 -6 -48 -2 -91 -9 -105 -18 -7 -4 -12 -1 -12
8 0 8 -5 27 -12 43 -6 15 -12 33 -14 38 -3 13 -106 199 -114 205 -3 3 -27 35
-53 72 -26 36 -54 73 -62 82 -8 8 -15 17 -15 20 0 3 -17 23 -38 44 -68 70
-174 113 -247 101z"/>
</g>
</svg>
